<svg width="44" height="42" viewBox="0 0 44 42" fill="none" xmlns="http://www.w3.org/2000/svg">
<path d="M21.9968 27.191C19.2591 27.191 17.0321 25.0138 17.0321 22.3373C17.0321 19.661 19.2591 17.4834 21.9968 17.4834C24.7342 17.4834 26.9615 19.661 26.9615 22.3373C26.9615 25.0138 24.7342 27.191 21.9968 27.191ZM18.6117 5.57508C18.6117 3.75015 20.1302 2.26569 21.9968 2.26569C23.8635 2.26569 25.3819 3.75015 25.3819 5.57508C25.3819 7.40001 23.8635 8.88447 21.9968 8.88447C20.1302 8.88447 18.6117 7.40001 18.6117 5.57508ZM8.91028 18.18C8.45559 19.5483 7.16267 20.4683 5.69274 20.4683C5.3383 20.4683 4.98571 20.4133 4.64464 20.3048C2.86948 19.7407 1.89465 17.8701 2.47169 16.1342C2.92656 14.7659 4.22015 13.8466 5.69056 13.8466C6.04452 13.8466 6.39609 13.9017 6.73699 14.0097C7.59669 14.2828 8.29637 14.8673 8.70707 15.6553C9.11738 16.4434 9.18979 17.3398 8.91028 18.18ZM29.6696 22.3373C29.6696 18.5768 27.0486 15.5368 23.3519 15.0004V11.0294C25.9237 10.5166 27.6385 8.239 27.6385 5.57508C27.6385 2.53354 25.1077 0.05929 21.9968 0.05929C18.8859 0.05929 16.3551 2.53354 16.3551 5.57508C16.3551 8.239 18.5236 10.5166 21.0952 11.0294V15.0004C18.579 15.3655 16.2347 16.8501 15.1363 18.9979L11.2978 17.7784C11.4235 16.7124 11.2277 15.6333 10.7178 14.6546C10.0338 13.3414 8.86743 12.3668 7.43436 11.9118C6.86834 11.7314 6.28161 11.6401 5.69056 11.6401C3.23942 11.6401 1.08335 13.1723 0.325267 15.4526C-0.636066 18.3452 0.989067 21.4632 3.94731 22.4032C4.51414 22.5829 5.10122 22.6746 5.69274 22.6746C7.75808 22.6746 9.61065 21.583 10.5967 19.8754L14.4382 21.0957C14.3687 21.5004 14.324 21.9134 14.324 22.3373C14.324 26.4739 17.7658 29.8388 21.9968 29.8388C26.2276 29.8388 29.6696 26.4739 29.6696 22.3373ZM41.3183 18.6589C40.9078 19.4474 40.2085 20.0314 39.3477 20.3048C39.0068 20.4129 38.6548 20.468 38.3015 20.468C36.8312 20.468 35.5372 19.5483 35.0823 18.18C34.5059 16.4446 35.4813 14.5737 37.2562 14.0097C37.5975 13.9017 37.9495 13.8466 38.3037 13.8466C39.7732 13.8466 41.0671 14.7664 41.5221 16.1351C41.801 16.9749 41.7288 17.8713 41.3183 18.6589ZM43.6687 15.4531C42.91 13.1723 40.754 11.6401 38.3037 11.6401C37.7129 11.6401 37.1259 11.7314 36.5591 11.9118C33.9678 12.7348 32.4 15.229 32.6959 17.7792L31.1143 18.2818L31.8116 20.3802L33.3966 19.8762C34.3834 21.5833 36.2361 22.6743 38.3015 22.6743C38.8923 22.6743 39.4793 22.5829 40.0449 22.4032C41.4789 21.9479 42.6451 20.9739 43.3295 19.6606C44.013 18.3477 44.1334 16.8535 43.6687 15.4531ZM34.0635 38.5754C33.4817 38.9886 32.795 39.2073 32.0778 39.2073C30.9953 39.2073 29.9701 38.6975 29.3355 37.8432C28.2383 36.3674 28.5742 34.2929 30.0839 33.2199C30.6669 32.8061 31.3536 32.5876 32.0703 32.5876C33.1524 32.5876 34.1777 33.0977 34.8127 33.9525C35.9093 35.4288 35.5735 37.5032 34.0635 38.5754ZM32.0703 30.3811C31.2558 30.3811 30.4669 30.5542 29.7388 30.8793L28.7595 29.5618L26.9339 30.8587L27.9113 32.1741C26.1391 34.0674 25.9085 36.986 27.5098 39.1397C28.5677 40.5636 30.2749 41.4136 32.0778 41.4136C33.2749 41.4136 34.42 41.0492 35.3903 40.3602C37.9064 38.5734 38.4664 35.117 36.6385 32.6556C35.5804 31.2313 33.8723 30.3811 32.0703 30.3811ZM14.6577 37.8432C14.0226 38.698 12.9974 39.2081 11.9158 39.2081C11.1993 39.2081 10.5119 38.9889 9.9292 38.5751C8.41919 37.5027 8.0833 35.4288 9.18064 33.9525C9.81505 33.0981 10.8405 32.5883 11.9228 32.5883C12.6403 32.5883 13.327 32.8066 13.909 33.2204C15.419 34.2929 15.7547 36.3669 14.6577 37.8432ZM17.0587 30.8579L15.2331 29.5613L14.2539 30.8793C13.5259 30.5542 12.7369 30.382 11.9228 30.382C10.1203 30.382 8.4127 31.2322 7.35474 32.6559C5.52656 35.116 6.08639 38.5724 8.60258 40.3602C9.57361 41.0497 10.719 41.4142 11.9158 41.4142C13.7173 41.4142 15.4245 40.5644 16.4833 39.1402C18.0851 36.9849 17.8541 34.0661 16.0815 32.1733L17.0587 30.8579Z" fill="url(#paint0_linear_1_880)"/>
<defs>
<linearGradient id="paint0_linear_1_880" x1="36.3925" y1="7.74859" x2="7.16687" y2="39.0891" gradientUnits="userSpaceOnUse">
<stop stop-color="#00B5CB"/>
<stop offset="1" stop-color="#2370E1"/>
</linearGradient>
</defs>
</svg>
